<?xml version="1.0" standalone="no"?>
<!DOCTYPE svg PUBLIC "-//W3C//DTD SVG 20010904//EN"
 "http://www.w3.org/TR/2001/REC-SVG-20010904/DTD/svg10.dtd">
<svg version="1.0" xmlns="http://www.w3.org/2000/svg"
 width="500.000000pt" height="500.000000pt" viewBox="0 0 500.000000 500.000000"
 preserveAspectRatio="xMidYMid meet">

<g transform="translate(0.000000,500.000000) scale(0.100000,-0.100000)"
fill="#000000" stroke="none">
<path d="M2265 4529 c-483 -61 -911 -275 -1245 -625 -277 -289 -474 -684 -535
-1069 l-6 -40 85 0 85 0 16 75 c27 131 107 361 165 475 182 358 470 645 825
822 272 136 550 203 845 203 224 0 441 -39 646 -116 51 -19 97 -34 103 -34 6
0 11 12 11 28 0 15 11 50 24 79 l24 52 -81 29 c-172 62 -298 93 -477 117 -115
16 -374 18 -485 4z"/>
<path d="M3461 4453 c-26 -9 -67 -37 -97 -67 -42 -41 -56 -63 -69 -110 -30
-103 -7 -194 68 -269 53 -53 109 -77 183 -77 82 0 142 23 194 73 57 55 82 115
83 191 2 189 -184 322 -362 259z"/>
<path d="M3810 4039 c0 -6 -23 -32 -50 -59 l-50 -49 86 -83 c652 -626 762
-1627 262 -2386 -49 -74 -66 -108 -57 -111 7 -2 37 -26 65 -53 l52 -49 79 118
c545 815 432 1905 -270 2591 -89 87 -117 106 -117 81z"/>
<path d="M2415 3299 c-324 -25 -610 -270 -696 -597 -28 -107 -28 -297 0 -404
74 -282 297 -505 576 -579 111 -29 298 -29 408 0 289 76 514 307 583 599 21
89 21 275 0 364 -46 197 -168 374 -336 488 -154 105 -322 145 -535 129z"/>
<path d="M476 2756 c-54 -20 -106 -65 -141 -121 -27 -44 -30 -56 -30 -134 0
-76 3 -92 27 -133 135 -229 485 -156 505 105 7 78 -9 134 -50 189 -52 68 -113
100 -200 105 -46 2 -86 -2 -111 -11z"/>
<path d="M485 2165 c36 -227 142 -516 266 -720 110 -181 297 -397 459 -528
624 -504 1485 -600 2194 -245 114 57 276 154 276 165 0 3 -11 14 -24 24 -13
10 -37 39 -52 63 l-27 43 -76 -49 c-192 -126 -469 -228 -726 -269 -45 -7 -165
-13 -275 -13 -259 0 -419 27 -647 110 -586 211 -1037 721 -1173 1327 -12 51
-23 101 -25 112 -4 18 -12 20 -90 20 l-86 0 6 -40z"/>
<path d="M3766 1344 c-150 -55 -222 -234 -152 -378 48 -98 131 -149 242 -149
87 0 149 27 205 92 98 111 88 276 -22 375 -79 71 -182 94 -273 60z"/>
</g>
</svg>
